<?xml version="1.0" standalone="no"?>
<!DOCTYPE svg PUBLIC "-//W3C//DTD SVG 20010904//EN"
 "http://www.w3.org/TR/2001/REC-SVG-20010904/DTD/svg10.dtd">
<svg version="1.0" xmlns="http://www.w3.org/2000/svg"
 width="512.000000pt" height="512.000000pt" viewBox="0 0 512.000000 512.000000"
 preserveAspectRatio="xMidYMid meet">
<metadata>
Created by potrace 1.16, written by Peter Selinger 2001-2019
</metadata>
<g transform="translate(0.000000,512.000000) scale(0.100000,-0.100000)"
fill="#000000" stroke="none">
<path d="M2650 5093 c-68 -36 -120 -102 -151 -192 -19 -57 -23 -90 -26 -234
l-2 -167 -75 -183 c-202 -497 -434 -939 -615 -1175 -32 -42 -100 -117 -150
-165 -96 -94 -157 -173 -216 -280 -20 -37 -38 -67 -38 -67 -1 0 -27 10 -57 22
-53 22 -70 23 -421 26 -210 2 -396 -1 -438 -6 -177 -25 -320 -144 -371 -310
-19 -62 -20 -96 -20 -1006 0 -1025 -2 -986 56 -1091 34 -60 109 -135 169 -169
98 -54 116 -56 544 -56 237 0 414 5 441 11 25 6 70 23 100 38 l55 28 150 -18
c526 -64 964 -88 1660 -92 521 -2 544 -1 656 20 524 100 809 362 809 745 l0
89 61 72 c75 90 110 150 145 252 23 68 27 97 28 195 1 82 -4 136 -18 188 l-18
72 42 65 c65 100 92 182 98 301 7 142 -20 247 -93 369 l-35 58 21 86 c28 114
23 254 -13 352 -84 227 -294 367 -620 415 -91 13 -158 15 -343 11 -240 -6
-351 -18 -595 -66 -80 -16 -147 -27 -149 -25 -7 7 18 178 40 271 11 49 49 185
84 303 96 322 109 392 109 595 0 199 -12 265 -77 395 -73 149 -208 264 -377
320 -45 15 -100 23 -180 27 -112 5 -116 4 -170 -24z m255 -288 c207 -58 295
-282 236 -607 -12 -64 -44 -193 -72 -285 -74 -244 -97 -326 -118 -438 -60
-304 -23 -487 111 -556 68 -35 100 -33 343 14 289 57 407 70 620 70 217 0 374
-26 478 -79 49 -26 108 -86 134 -138 36 -71 30 -173 -15 -270 -33 -71 -41
-131 -21 -168 6 -11 33 -48 60 -81 59 -73 89 -148 89 -222 0 -65 -29 -148 -71
-203 -17 -22 -44 -58 -61 -80 -44 -59 -46 -102 -7 -197 27 -68 32 -93 33 -170
1 -82 -2 -96 -32 -160 -26 -54 -52 -87 -118 -150 -99 -96 -110 -120 -93 -213
16 -88 7 -189 -22 -248 -88 -184 -371 -305 -749 -321 -192 -7 -1171 15 -1385
31 -250 20 -559 51 -610 61 -20 4 -20 11 -17 942 2 624 -1 952 -8 980 -12 51
1 97 62 218 51 100 79 138 194 251 269 266 571 809 860 1544 l49 125 -3 152
c-3 99 0 165 8 188 13 40 15 40 125 10z m-1658 -2451 c15 -11 38 -36 51 -54
l22 -33 0 -906 c0 -863 -1 -908 -19 -941 -10 -19 -30 -44 -45 -55 -26 -19 -43
-20 -404 -23 -362 -2 -378 -2 -410 18 -18 11 -41 34 -52 52 -19 32 -20 53 -20
947 0 910 0 914 21 948 12 18 37 42 57 53 35 18 57 19 404 17 354 -2 367 -3
395 -23z"/>
</g>
</svg>
