<svg width="512" height="512" viewBox="0 0 512 512" fill="none" xmlns="http://www.w3.org/2000/svg">
<rect width="512" height="512" fill="#E5E5E5"/>
<path d="M270.1 1.10001C261.5 3.70001 254.8 10.5 251.1 20.5C248.2 28.2 246.7 41.1 247.5 51.6L248.1 60.8L242.2 75.6C222.5 124.8 198.2 171.9 179.7 196.6C175.6 202.1 168.4 210.2 163.7 214.7C154 224 149.4 229.8 142.6 241.6L137.9 249.6L131.2 247.3C124.7 245.1 123.5 245.1 84.9 245C42.8 245 40.4 245.2 30.7 250.2C22.1 254.5 13.4 264.9 9.39999 275.5C7.59999 280.3 7.49999 285 7.19999 372C6.99999 428.7 7.29999 465.9 7.89999 469.8C10.9 488.8 26.4 504.3 45.2 507C48.7 507.5 66.8 508 85.5 508C122.7 508 129 507.3 138 502.4L143 499.7L161.2 501.9C208 507.4 240.8 509.5 307.1 511.1C343.7 511.9 359.2 511.9 369.6 511.1C410.9 507.7 441.8 494.5 457.5 473.8C466.4 462 470 451.2 470.2 435.5C470.3 425.7 470.3 425.4 473.5 422C482.7 412.1 489.6 400 492.4 388.9C494.6 379.8 494.5 365.2 492 355.6L490 347.8L493.1 343.4C501.2 331.6 505.6 316.7 504.6 304.4C503.8 294.7 499.9 282.7 495 275.1L490.9 268.8L492.4 264.4C496.6 252.1 496.5 236.6 492.3 225C489.6 217.6 482.2 207.2 475.6 201.8C450.9 181.2 402.6 176.6 339.8 189C331.4 190.6 323.9 192 323.1 192C322 192 321.8 190.4 322.4 183.5C323.2 172.8 326.1 160.3 333.8 134.5C341.3 109.4 343.7 98.6 344.9 83.3C346 70.1 345.2 58.5 342.5 48.5C336.5 26.1 318.6 8.2 296.1 2.5C288.1 0.5 274.6 -0.299994 270.1 1.10001ZM291.3 31.1C306.2 36.1 313.8 46.7 315.9 65.2C317.6 80.5 314.7 97.8 305.6 127.1C296 157.9 292.4 176.9 293.2 193C294.2 211.7 302.6 222 317.1 222C319.1 222 328.5 220.4 338.1 218.5C367.6 212.5 375.3 211.6 400.5 211.6C419 211.5 425.3 211.9 432.5 213.3C462.6 219.4 473.5 236.7 462.5 261.1C457.5 272 457.8 274.1 465.6 283.7C479.6 300.8 479 316 463.7 334.2C458.2 340.7 457.7 346.1 461.6 355C464.2 360.8 464.5 362.6 464.5 372.5C464.5 382.7 464.3 384 461.6 389.5C459.6 393.6 455.9 398.1 449.9 404.1C444.7 409.1 440.8 413.8 440.4 415.5C440 417.1 440.3 422.5 441 427.6C442.4 438.3 441.5 444.4 437.3 452.3C430 465.6 410.7 475.6 382.2 480.7C373.8 482.2 366.8 482.4 331 482.2C262.6 481.9 210 479.1 166 473.4L161.5 472.8L161.8 384.2C162.1 322.2 161.8 292.3 161 284.9C159.9 274.3 159.9 274.2 162.7 266.9C167.8 253.9 173.3 245.8 185.5 233.5C204.4 214.4 219.5 191.8 238.4 154.1C250.3 130.5 260.9 106.8 270.4 82.8L277 66L276.7 51.3C276.6 43.1 276.9 34.8 277.3 32.7C278 29.3 278.4 29 281.6 29C283.5 29 287.9 29.9 291.3 31.1ZM125 276.2C126.8 277.5 129.3 279.8 130.4 281.3C132.5 284.1 132.5 284.4 132.5 375.9V467.6L129.8 471.7C125 478.9 123.8 479.1 82.3 478.8C47.6 478.5 46 478.4 43.4 476.4C41.9 475.3 39.7 473.1 38.6 471.6C36.5 468.9 36.5 468 36.2 377.6L36 286.4L38.3 282C42.5 274 42.3 274 84.6 274C121.4 274 121.7 274 125 276.2Z" fill="#FF6600"/>
</svg>
